File size                                : 975 MiB
Duration                                 : 1h 52mn
Overall bit rate                         : 1 207 Kbps

Video
ID                                       : 0
Format                                   : MPEG-4 Visual
Format profile                           : Advanced Simple@L5
Format settings, BVOP                    : 2
Format settings, QPel                    : No
Format settings, GMC                     : No warppoints
Format settings, Matrix                  : Default (H.263)
Codec ID                                 : XVID
Codec ID/Hint                            : XviD
Duration                                 : 1h 52mn
Bit rate                                 : 1 072 Kbps
Width                                    : 720 pixels
Height                                   : 304 pixels
Display aspect ratio                     : 2.35:1
Frame rate                               : 23.976 fps
Color space                              : YUV
Chroma subsampling                       : 4:2:0
Bit depth                                : 8 bits
Scan type                                : Progressive
Compression mode                         : Lossy
Bits/(Pixel*Frame)                       : 0.204
Stream size                              : 865 MiB (89%)
Writing library                          : XviD 1.2.1 (UTC 2008-12-04)

Audio
ID                                       : 1
Format                                   : AC-3
Format/Info                              : Audio Coding 3
Mode extension                           : CM (complete main)
Format settings, Endianness              : Big
Codec ID                                 : 2000
Duration                                 : 1h 52mn
Bit rate mode                            : Constant
Bit rate                                 : 128 Kbps
Channel(s)                               : 2 channels
Channel positions                        : Front: L R
Sampling rate                            : 48.0 KHz
Bit depth                                : 16 bits
Compression mode                         : Lossy
Stream size                              : 103 MiB (11%)
Alignment                                : Aligned on interleaves
Interleave, duration                     : 64 ms (1.53 video frames)
Interleave, preload duration             : 192 ms
Title                                    : Gangster.Squad.2013.720p.WEB-DL.H264-IRONCLUB - [1] English



IMDBhttp://www.imdb.com/title/tt1321870/

Source &gt;&gt;&gt;&gt;&gt;&gt;720p.WEB-DL.H264-IRONCLUB....Very nice guys and thanks

Note: I watched the source and SSDD version, both nice only 2 channels floating about so since was asked by the group i went for smaller size and half decent bitrate and ran my script through it and adjusted it .......the source was real nice for web rip and support the source if filesize dosent bother you and by ball this rip of which there is about 200 out there now LOL

as requested .......released!

Sample provided

 
http://imgbox.com/g/B66KNmhNg9